<?xml version="1.0" encoding="UTF-8"?>
<mxfile host="app.diagrams.net" agent="Mozilla/5.0 (Macintosh; Intel Mac OS X 10_15_7) AppleWebKit/537.36 (KHTML, like Gecko) Chrome/139.0.0.0 Safari/537.36" version="28.2.0" pages="1">
  <diagram id="HNCmI7EWw_AK0z1aijL_" name="Page-1">
    <mxGraphModel dx="2702" dy="1553" grid="1" gridSize="10" guides="1" tooltips="1" connect="1" arrows="1" fold="1" page="1" pageScale="1" pageWidth="850" pageHeight="1100" math="0" shadow="0">
      <root>
        <mxCell id="0" />
        <mxCell id="1" parent="0" />
        <mxCell id="tugQQM5Kxkyq98HB8E-G-1" value="ExampleContext" style="swimlane;whiteSpace=wrap;html=1;strokeColor=none;swimlaneLine=0;fillColor=#F5F5F5;gradientColor=none;swimlaneFillColor=#f9f9f9;fontStyle=1;fontColor=#4D4D4D;glass=0;shadow=0;" vertex="1" parent="1">
          <mxGeometry x="50" y="50" width="1500" height="800" as="geometry">
            <mxRectangle x="488" y="-400" width="130" height="26" as="alternateBounds" />
          </mxGeometry>
        </mxCell>
        <mxCell id="tugQQM5Kxkyq98HB8E-G-2" value="event1" style="shape=note;whiteSpace=wrap;html=1;backgroundOutline=1;darkOpacity=0.05;fillColor=#feae57;strokeColor=none;fontSize=16;fontStyle=0;rotation=0;shadow=1;" vertex="1" parent="tugQQM5Kxkyq98HB8E-G-1">
          <mxGeometry x="50" y="100" width="120" height="80" as="geometry" />
        </mxCell>
        <mxCell id="tugQQM5Kxkyq98HB8E-G-3" value="policy1" style="shape=note;whiteSpace=wrap;html=1;backgroundOutline=1;darkOpacity=0.05;fillColor=#da99e6;strokeColor=none;fontSize=16;fontStyle=0;rotation=0;shadow=1;" vertex="1" parent="tugQQM5Kxkyq98HB8E-G-1">
          <mxGeometry x="220" y="100" width="120" height="80" as="geometry" />
        </mxCell>
        <mxCell id="tugQQM5Kxkyq98HB8E-G-4" value="read_model1" style="shape=note;whiteSpace=wrap;html=1;backgroundOutline=1;darkOpacity=0.05;fillColor=#b0deb3;strokeColor=none;fontSize=16;fontStyle=0;rotation=0;shadow=1;" vertex="1" parent="tugQQM5Kxkyq98HB8E-G-1">
          <mxGeometry x="390" y="50" width="120" height="80" as="geometry" />
        </mxCell>
        <mxCell id="tugQQM5Kxkyq98HB8E-G-5" value="actor1" style="shape=note;whiteSpace=wrap;html=1;backgroundOutline=1;darkOpacity=0.05;fillColor=#fef5b2;strokeColor=none;fontSize=16;fontStyle=0;rotation=0;shadow=1;" vertex="1" parent="tugQQM5Kxkyq98HB8E-G-1">
          <mxGeometry x="390" y="150" width="120" height="80" as="geometry" />
        </mxCell>
        <mxCell id="tugQQM5Kxkyq98HB8E-G-6" value="command1" style="shape=note;whiteSpace=wrap;html=1;backgroundOutline=1;darkOpacity=0.05;fillColor=#a7c5fc;strokeColor=none;fontSize=16;fontStyle=0;rotation=0;shadow=1;" vertex="1" parent="tugQQM5Kxkyq98HB8E-G-1">
          <mxGeometry x="560" y="100" width="120" height="80" as="geometry" />
        </mxCell>
        <mxCell id="tugQQM5Kxkyq98HB8E-G-7" value="aggregate1 | external_system1" style="shape=note;whiteSpace=wrap;html=1;backgroundOutline=1;darkOpacity=0.05;fillColor=#FFB3C5;strokeColor=none;fontSize=14;fontStyle=0;rotation=0;shadow=1;" vertex="1" parent="tugQQM5Kxkyq98HB8E-G-1">
          <mxGeometry x="730" y="100" width="140" height="80" as="geometry" />
        </mxCell>
        <mxCell id="tugQQM5Kxkyq98HB8E-G-8" value="event2" style="shape=note;whiteSpace=wrap;html=1;backgroundOutline=1;darkOpacity=0.05;fillColor=#feae57;strokeColor=none;fontSize=16;fontStyle=0;rotation=0;shadow=1;" vertex="1" parent="tugQQM5Kxkyq98HB8E-G-1">
          <mxGeometry x="920" y="100" width="120" height="80" as="geometry" />
        </mxCell>
        <mxCell id="tugQQM5Kxkyq98HB8E-G-9" value="policy2" style="shape=note;whiteSpace=wrap;html=1;backgroundOutline=1;darkOpacity=0.05;fillColor=#da99e6;strokeColor=none;fontSize=16;fontStyle=0;rotation=0;shadow=1;" vertex="1" parent="tugQQM5Kxkyq98HB8E-G-1">
          <mxGeometry x="1090" y="50" width="120" height="80" as="geometry" />
        </mxCell>
        <mxCell id="tugQQM5Kxkyq98HB8E-G-10" value="command2" style="shape=note;whiteSpace=wrap;html=1;backgroundOutline=1;darkOpacity=0.05;fillColor=#a7c5fc;strokeColor=none;fontSize=16;fontStyle=0;rotation=0;shadow=1;" vertex="1" parent="tugQQM5Kxkyq98HB8E-G-1">
          <mxGeometry x="1260" y="50" width="120" height="80" as="geometry" />
        </mxCell>
        <mxCell id="tugQQM5Kxkyq98HB8E-G-11" value="policy3" style="shape=note;whiteSpace=wrap;html=1;backgroundOutline=1;darkOpacity=0.05;fillColor=#da99e6;strokeColor=none;fontSize=16;fontStyle=0;rotation=0;shadow=1;" vertex="1" parent="tugQQM5Kxkyq98HB8E-G-1">
          <mxGeometry x="1090" y="150" width="120" height="80" as="geometry" />
        </mxCell>
        <mxCell id="tugQQM5Kxkyq98HB8E-G-12" value="command3" style="shape=note;whiteSpace=wrap;html=1;backgroundOutline=1;darkOpacity=0.05;fillColor=#a7c5fc;strokeColor=none;fontSize=16;fontStyle=0;rotation=0;shadow=1;" vertex="1" parent="tugQQM5Kxkyq98HB8E-G-1">
          <mxGeometry x="1260" y="150" width="120" height="80" as="geometry" />
        </mxCell>
        <mxCell id="tugQQM5Kxkyq98HB8E-G-13" value="policy4" style="shape=note;whiteSpace=wrap;html=1;backgroundOutline=1;darkOpacity=0.05;fillColor=#da99e6;strokeColor=none;fontSize=16;fontStyle=0;rotation=0;shadow=1;" vertex="1" parent="tugQQM5Kxkyq98HB8E-G-1">
          <mxGeometry x="1090" y="250" width="120" height="80" as="geometry" />
        </mxCell>
        <mxCell id="tugQQM5Kxkyq98HB8E-G-14" value="command4" style="shape=note;whiteSpace=wrap;html=1;backgroundOutline=1;darkOpacity=0.05;fillColor=#a7c5fc;strokeColor=none;fontSize=16;fontStyle=0;rotation=0;shadow=1;" vertex="1" parent="tugQQM5Kxkyq98HB8E-G-1">
          <mxGeometry x="1260" y="250" width="120" height="80" as="geometry" />
        </mxCell>
        <mxCell id="tugQQM5Kxkyq98HB8E-G-15" value="event3" style="shape=note;whiteSpace=wrap;html=1;backgroundOutline=1;darkOpacity=0.05;fillColor=#feae57;strokeColor=none;fontSize=16;fontStyle=0;rotation=0;shadow=1;" vertex="1" parent="tugQQM5Kxkyq98HB8E-G-1">
          <mxGeometry x="50" y="400" width="120" height="80" as="geometry" />
        </mxCell>
        <mxCell id="tugQQM5Kxkyq98HB8E-G-16" style="edgeStyle=orthogonalEdgeStyle;rounded=0;orthogonalLoop=1;jettySize=auto;html=1;entryX=0;entryY=0.5;entryDx=0;entryDy=0;entryPerimeter=0;" edge="1" parent="tugQQM5Kxkyq98HB8E-G-1" source="tugQQM5Kxkyq98HB8E-G-2" target="tugQQM5Kxkyq98HB8E-G-3">
          <mxGeometry relative="1" as="geometry" />
        </mxCell>
        <mxCell id="tugQQM5Kxkyq98HB8E-G-17" style="edgeStyle=orthogonalEdgeStyle;rounded=0;orthogonalLoop=1;jettySize=auto;html=1;entryX=0;entryY=0.5;entryDx=0;entryDy=0;entryPerimeter=0;" edge="1" parent="tugQQM5Kxkyq98HB8E-G-1" source="tugQQM5Kxkyq98HB8E-G-3" target="tugQQM5Kxkyq98HB8E-G-4">
          <mxGeometry relative="1" as="geometry" />
        </mxCell>
        <mxCell id="tugQQM5Kxkyq98HB8E-G-18" style="edgeStyle=orthogonalEdgeStyle;rounded=0;orthogonalLoop=1;jettySize=auto;html=1;entryX=0;entryY=0.5;entryDx=0;entryDy=0;entryPerimeter=0;" edge="1" parent="tugQQM5Kxkyq98HB8E-G-1" source="tugQQM5Kxkyq98HB8E-G-3" target="tugQQM5Kxkyq98HB8E-G-5">
          <mxGeometry relative="1" as="geometry" />
        </mxCell>
        <mxCell id="tugQQM5Kxkyq98HB8E-G-19" style="edgeStyle=orthogonalEdgeStyle;rounded=0;orthogonalLoop=1;jettySize=auto;html=1;entryX=0;entryY=0.5;entryDx=0;entryDy=0;entryPerimeter=0;" edge="1" parent="tugQQM5Kxkyq98HB8E-G-1" source="tugQQM5Kxkyq98HB8E-G-3" target="tugQQM5Kxkyq98HB8E-G-6">
          <mxGeometry relative="1" as="geometry" />
        </mxCell>
        <mxCell id="tugQQM5Kxkyq98HB8E-G-20" style="edgeStyle=orthogonalEdgeStyle;rounded=0;orthogonalLoop=1;jettySize=auto;html=1;entryX=0;entryY=0.5;entryDx=0;entryDy=0;entryPerimeter=0;" edge="1" parent="tugQQM5Kxkyq98HB8E-G-1" source="tugQQM5Kxkyq98HB8E-G-6" target="tugQQM5Kxkyq98HB8E-G-7">
          <mxGeometry relative="1" as="geometry" />
        </mxCell>
        <mxCell id="tugQQM5Kxkyq98HB8E-G-21" style="edgeStyle=orthogonalEdgeStyle;rounded=0;orthogonalLoop=1;jettySize=auto;html=1;entryX=0;entryY=0.5;entryDx=0;entryDy=0;entryPerimeter=0;" edge="1" parent="tugQQM5Kxkyq98HB8E-G-1" source="tugQQM5Kxkyq98HB8E-G-7" target="tugQQM5Kxkyq98HB8E-G-8">
          <mxGeometry relative="1" as="geometry" />
        </mxCell>
        <mxCell id="tugQQM5Kxkyq98HB8E-G-22" style="edgeStyle=orthogonalEdgeStyle;rounded=0;orthogonalLoop=1;jettySize=auto;html=1;entryX=0;entryY=0.5;entryDx=0;entryDy=0;entryPerimeter=0;" edge="1" parent="tugQQM5Kxkyq98HB8E-G-1" source="tugQQM5Kxkyq98HB8E-G-8" target="tugQQM5Kxkyq98HB8E-G-9">
          <mxGeometry relative="1" as="geometry" />
        </mxCell>
        <mxCell id="tugQQM5Kxkyq98HB8E-G-23" style="edgeStyle=orthogonalEdgeStyle;rounded=0;orthogonalLoop=1;jettySize=auto;html=1;entryX=0;entryY=0.5;entryDx=0;entryDy=0;entryPerimeter=0;" edge="1" parent="tugQQM5Kxkyq98HB8E-G-1" source="tugQQM5Kxkyq98HB8E-G-8" target="tugQQM5Kxkyq98HB8E-G-11">
          <mxGeometry relative="1" as="geometry" />
        </mxCell>
        <mxCell id="tugQQM5Kxkyq98HB8E-G-24" style="edgeStyle=orthogonalEdgeStyle;rounded=0;orthogonalLoop=1;jettySize=auto;html=1;entryX=0;entryY=0.5;entryDx=0;entryDy=0;entryPerimeter=0;" edge="1" parent="tugQQM5Kxkyq98HB8E-G-1" source="tugQQM5Kxkyq98HB8E-G-9" target="tugQQM5Kxkyq98HB8E-G-10">
          <mxGeometry relative="1" as="geometry" />
        </mxCell>
        <mxCell id="tugQQM5Kxkyq98HB8E-G-25" style="edgeStyle=orthogonalEdgeStyle;rounded=0;orthogonalLoop=1;jettySize=auto;html=1;entryX=0;entryY=0.5;entryDx=0;entryDy=0;entryPerimeter=0;" edge="1" parent="tugQQM5Kxkyq98HB8E-G-1" source="tugQQM5Kxkyq98HB8E-G-11" target="tugQQM5Kxkyq98HB8E-G-12">
          <mxGeometry relative="1" as="geometry" />
        </mxCell>
        <mxCell id="tugQQM5Kxkyq98HB8E-G-26" style="edgeStyle=orthogonalEdgeStyle;rounded=0;orthogonalLoop=1;jettySize=auto;html=1;entryX=0.5;entryY=0;entryDx=0;entryDy=0;entryPerimeter=0;" edge="1" parent="tugQQM5Kxkyq98HB8E-G-1" source="tugQQM5Kxkyq98HB8E-G-12" target="tugQQM5Kxkyq98HB8E-G-13">
          <mxGeometry relative="1" as="geometry" />
        </mxCell>
        <mxCell id="tugQQM5Kxkyq98HB8E-G-27" style="edgeStyle=orthogonalEdgeStyle;rounded=0;orthogonalLoop=1;jettySize=auto;html=1;entryX=0;entryY=0.5;entryDx=0;entryDy=0;entryPerimeter=0;" edge="1" parent="tugQQM5Kxkyq98HB8E-G-1" source="tugQQM5Kxkyq98HB8E-G-13" target="tugQQM5Kxkyq98HB8E-G-14">
          <mxGeometry relative="1" as="geometry" />
        </mxCell>
      </root>
    </mxGraphModel>
  </diagram>
</mxfile>